<svg width="300" height="100" viewBox="0 0 300 100" fill="none" xmlns="http://www.w3.org/2000/svg">
<g clip-path="url(#clip0_1866_13577)">
<path opacity="0.6" d="M30.9141 43.9459C30.9141 43.9459 73.8251 9.48187 118.424 29.7549C195.734 64.8949 231.728 27.8029 265.062 25.0259C313.716 20.9699 335.002 41.2439 335.002 41.2439V95.6399H30.9141V43.9459Z" fill="white"/>
<path opacity="0.6" d="M-35.6641 44.6291C-35.6641 44.6291 7.24593 10.1661 51.8459 30.4381C129.156 65.5791 165.15 28.4861 198.485 25.7091C247.138 21.6541 268.424 41.9271 268.424 41.9271V96.3231H-35.6641V44.6291Z" fill="white"/>
<path opacity="0.7" d="M43.4124 98.3411C43.4124 98.3411 91.6954 29.4141 152.545 29.4141C218.431 29.4141 250.528 97.3281 250.528 97.3281V101.044H42.3984L43.4124 98.3411Z" fill="white"/>
<path d="M-34.6641 62.9967C-34.6641 62.9967 21.3359 17.3297 85.6519 35.1577C167.487 57.8407 197.003 41.3307 232.289 30.4267C285.359 14.0277 336.336 67.3297 336.336 67.3297L337.669 103.997L-34.3311 101.043L-34.6641 62.9967Z" fill="white"/>
</g>
<defs>
<clipPath id="clip0_1866_13577">
<rect width="300" height="100" fill="white"/>
</clipPath>
</defs>
</svg>
